<?xml version="1.0" encoding="UTF-8"?>
<svg id="Layer_2" xmlns="http://www.w3.org/2000/svg" xmlns:xlink="http://www.w3.org/1999/xlink" version="1.1" viewBox="0 0 948.8 221.7">
  <!-- Generator: Adobe Illustrator 30.1.0, SVG Export Plug-In . SVG Version: 2.1.1 Build 136)  -->
  <defs>
    <style>
      .st0 {
        fill: #363436;
      }

      .st1 {
        fill: url(#linear-gradient);
      }

      .st2 {
        isolation: isolate;
      }

      .st3 {
        fill: #d32722;
      }
    </style>
    <linearGradient id="linear-gradient" x1="833.2" y1="121.2" x2="948.8" y2="121.2" gradientTransform="translate(0 222) scale(1 -1)" gradientUnits="userSpaceOnUse">
      <stop offset="0" stop-color="#9e282b"/>
      <stop offset=".3" stop-color="#d32722"/>
    </linearGradient>
  </defs>
  <g id="Layer_1-2">
    <g>
      <g class="st2">
        <g class="st2">
          <path class="st0" d="M52.4,124.2h-16.5v43.1h-19.6V58.5h36.7c11.5,0,20.7,2.6,27.7,7.7,6.9,5.1,10.4,12.2,10.4,21.1v8.1c0,5.9-1.7,11-5.2,15.4-3.5,4.4-8.3,7.7-14.5,10.1l25,46.5h-21.4l-22.5-43.1ZM35.9,109.6h16.5c5.9,0,10.5-1.3,13.9-3.9,3.4-2.6,5.1-6.2,5.1-10.9v-6.7c0-4.8-1.7-8.4-5.1-11-3.4-2.6-8.1-3.9-14-3.9h-16.3v36.4Z"/>
          <path class="st0" d="M193.8,167.3h-19.6v-48h-43.7v48h-19.6V58.5h19.6v44.9h43.7v-44.9h19.6v108.8Z"/>
          <path class="st0" d="M270.3,138.7h-37.6l-8.2,28.6h-19.7l33.3-108.8h26.6l35,108.8h-20.2l-9-28.6ZM237,123h28.6l-14.5-50.8-14.1,50.8Z"/>
        </g>
        <g class="st2">
          <path class="st0" d="M373.7,66.7c6.9,5.4,10.4,13.1,10.4,22.9v9c0,9.8-3.7,17.5-11.2,23.1-7.5,5.5-17.5,8.3-30.2,8.3h-13.7v37.3h-19.6V58.5h35.9c11.9,0,21.3,2.7,28.3,8.2ZM364.5,90.5c0-5.7-1.8-10-5.3-12.8-3.5-2.8-8.4-4.3-14.8-4.3h-15.4v41.7h13.1c14.9,0,22.4-5.9,22.4-17.6v-7Z"/>
        </g>
        <g class="st2">
          <path class="st0" d="M385.8,155.2l9.8-11.7c3.9,2.6,7.1,4.5,9.5,5.8,2.4,1.3,5.2,2.4,8.5,3.2,3.3.8,7.3,1.2,12,1.2,7.5,0,13.2-1.5,17.1-4.6,3.9-3.1,5.9-6.6,5.9-10.6v-2c0-3.9-1.2-7-3.5-9.3-2.3-2.3-6.7-4.5-13.1-6.5l-16-5.3c-17.1-5.5-25.6-14.7-25.6-27.5v-3.6c0-5,1.5-9.6,4.6-13.8,3.1-4.2,7.5-7.6,13.4-10.2,5.9-2.5,12.8-3.8,20.8-3.8s15.1,1.2,21.3,3.6c6.2,2.4,11.9,5.9,16.9,10.6l-9.6,10.7c-5-3.7-9.5-6.3-13.5-7.8-4-1.5-8.8-2.2-14.3-2.2s-11.5,1.3-14.9,3.8c-3.4,2.5-5.1,5.5-5.1,8.9v2.6c0,2.8,1.4,5.3,4.1,7.6,2.7,2.3,7.2,4.4,13.3,6.2l14.5,4.7c8.3,2.6,14.7,6.2,19.4,10.7,4.6,4.6,6.9,10.7,6.9,18.5v4.2c0,6-1.8,11.3-5.3,16-3.5,4.7-8.4,8.3-14.7,10.8-6.3,2.5-13.4,3.8-21.5,3.8-17,0-30.6-4.7-40.7-14.1Z"/>
          <path class="st0" d="M548.4,62.1c6.7,3.7,11.7,8.9,15.1,15.6,3.4,6.7,5.1,14.4,5.1,23.1v24.4c0,8.6-1.7,16.2-5.1,22.8-3.4,6.6-8.4,11.8-15.1,15.6-6.7,3.8-14.9,5.7-24.6,5.7s-17.8-1.9-24.5-5.7-11.7-9-15.1-15.6c-3.4-6.6-5.1-14.2-5.1-22.8v-24.4c0-8.7,1.7-16.4,5.1-23.1,3.4-6.7,8.4-11.9,15.1-15.6s14.8-5.6,24.5-5.6,18,1.9,24.6,5.6ZM505.1,79.3c-4.2,5.2-6.3,12.3-6.3,21.3v24.9c0,8.9,2.1,15.9,6.3,21.1,4.2,5.1,10.4,7.7,18.7,7.7s14.5-2.6,18.7-7.7c4.2-5.1,6.3-12.1,6.3-21.1v-24.9c0-9-2.1-16.1-6.3-21.3-4.2-5.2-10.4-7.8-18.7-7.8s-14.5,2.6-18.7,7.8Z"/>
        </g>
        <g class="st2">
          <path class="st0" d="M655.1,70.2c7.6,7.8,11.3,18.4,11.3,31.9v19.3c0,14.4-4.2,25.7-12.5,33.8-8.3,8.1-20.2,12.2-35.7,12.2h-31.7V58.5h35.6c14.4,0,25.4,3.9,33,11.7ZM646.9,101.6c0-9-2.2-15.9-6.5-20.7-4.3-4.8-10.7-7.2-19.2-7.2h-15.1v78.6h12.3c9.5,0,16.7-2.5,21.4-7.6,4.7-5.1,7.1-12.7,7.1-23v-20.1Z"/>
        </g>
        <g class="st2">
          <path class="st0" d="M754.6,58.5l-34.7,64.5v44.3h-19.7v-44.3l-34.8-64.5h20.5l24.7,49.3,24.2-49.3h19.7Z"/>
        </g>
      </g>
      <g>
        <path class="st1" d="M898.3,79.8l50.5,87.5h-35.5l-45.3-83.4v.2h-34.8v-25.2h31c29.8-1,39.1-10,44.8-24.6l29,10c-7.4,20.4-26.7,39.3-70.2,39.7"/>
        <polygon class="st3" points="770.6 58.9 801.3 58.9 833.2 58.9 833.2 84.1 833.2 167.3 801.3 167.3 801.3 84.1 770.6 84.1 770.6 58.9"/>
        <path class="st3" d="M816.3,42.4c-12.6,0-21.8-8.3-21.8-21.2s9.3-21.2,21.8-21.2,21.8,8.6,21.8,21.2-9.3,21.2-21.8,21.2"/>
      </g>
    </g>
  </g>
</svg>